<svg width="100" height="100" viewBox="0 0 100 100" fill="none" xmlns="http://www.w3.org/2000/svg">
<circle cx="50" cy="50" r="50" fill="#1A202C"/>
<path fill-rule="evenodd" clip-rule="evenodd" d="M50 22.5C42.3294 22.5 36.1111 28.7183 36.1111 36.3889C36.1111 44.0595 42.3294 50.2778 50 50.2778C57.6706 50.2778 63.8889 44.0595 63.8889 36.3889C63.8889 28.7183 57.6706 22.5 50 22.5ZM41.6667 36.3889C41.6667 31.7865 45.3976 28.0556 50 28.0556C54.6024 28.0556 58.3333 31.7865 58.3333 36.3889C58.3333 40.9913 54.6024 44.7222 50 44.7222C45.3976 44.7222 41.6667 40.9913 41.6667 36.3889Z" fill="white"/>
<path d="M38.8889 55.8333C35.2053 55.8333 31.6726 57.2966 29.068 59.9013C26.4633 62.506 25 66.0387 25 69.7222V75.2778C25 76.8119 26.2437 78.0556 27.7778 78.0556C29.3119 78.0556 30.5556 76.8119 30.5556 75.2778V69.7222C30.5556 67.5121 31.4335 65.3925 32.9963 63.8297C34.5591 62.2669 36.6788 61.3889 38.8889 61.3889H61.1111C63.3212 61.3889 65.4409 62.2669 67.0037 63.8297C68.5665 65.3925 69.4444 67.5121 69.4444 69.7222V75.2778C69.4444 76.8119 70.6881 78.0556 72.2222 78.0556C73.7563 78.0556 75 76.8119 75 75.2778V69.7222C75 66.0387 73.5367 62.506 70.932 59.9013C68.3274 57.2966 64.7947 55.8333 61.1111 55.8333H38.8889Z" fill="white"/>
</svg>
