<svg  viewBox="0 0 32 32" fill="none" xmlns="http://www.w3.org/2000/svg">
<path fill-rule="evenodd" clip-rule="evenodd" d="M8.00008 11.3337C8.00008 9.49271 9.49247 8.00033 11.3334 8.00033C13.1744 8.00033 14.6667 9.49271 14.6667 11.3337C14.6667 13.1746 13.1744 14.667 11.3334 14.667C9.49247 14.667 8.00008 13.1746 8.00008 11.3337ZM11.3334 10.667C10.9652 10.667 10.6667 10.9655 10.6667 11.3337C10.6667 11.7018 10.9652 12.0003 11.3334 12.0003C11.7016 12.0003 12.0001 11.7018 12.0001 11.3337C12.0001 10.9655 11.7016 10.667 11.3334 10.667Z" fill="#2D3648"/>
<path fill-rule="evenodd" clip-rule="evenodd" d="M2.66675 6.66699C2.66675 4.45785 4.45761 2.66699 6.66675 2.66699H25.3334C27.5426 2.66699 29.3334 4.45785 29.3334 6.66699V25.3337C29.3334 27.5428 27.5426 29.3337 25.3334 29.3337H6.66675C4.45761 29.3337 2.66675 27.5428 2.66675 25.3337V6.66699ZM6.66675 5.33366C5.93037 5.33366 5.33341 5.93061 5.33341 6.66699V25.3337C5.33341 25.9054 5.69332 26.3931 6.19894 26.5826L20.3907 12.3909C20.9114 11.8702 21.7556 11.8702 22.2763 12.3909L26.6667 16.7813V6.66699C26.6667 5.93061 26.0698 5.33366 25.3334 5.33366H6.66675ZM26.6667 20.5525L21.3335 15.2193L9.8858 26.667H25.3334C26.0698 26.667 26.6667 26.07 26.6667 25.3337V20.5525Z" fill="#2D3648"/>
</svg>
