<svg width="48" height="48" viewBox="0 0 48 48" fill="none" xmlns="http://www.w3.org/2000/svg">
<path d="M28.2003 22.5882C29.332 21.8065 30.1253 20.5232 30.1253 19.3332C30.1253 16.6965 28.0837 14.6665 25.4587 14.6665H18.167V30.9998H26.3803C28.8187 30.9998 30.7087 29.0165 30.7087 26.5782C30.7087 24.8048 29.7053 23.2882 28.2003 22.5882ZM21.667 17.5832H25.167C26.1353 17.5832 26.917 18.3648 26.917 19.3332C26.917 20.3015 26.1353 21.0832 25.167 21.0832H21.667V17.5832ZM25.7503 28.0832H21.667V24.5832H25.7503C26.7187 24.5832 27.5003 25.3648 27.5003 26.3332C27.5003 27.3015 26.7187 28.0832 25.7503 28.0832Z" fill="#2D3648"/>
</svg>
