<svg viewBox="0 0 40 40" fill="none" xmlns="http://www.w3.org/2000/svg">
<rect x="0.5" y="0.5" width="39" height="39" rx="5.5" fill="#FDFDFD"/>
<rect x="0.5" y="0.5" width="39" height="39" rx="5.5" stroke="#E2E7F0"/>
<path d="M14.7071 14.2929C14.3166 13.9024 13.6834 13.9024 13.2929 14.2929C12.9024 14.6834 12.9024 15.3166 13.2929 15.7071L17.5858 20L13.2929 24.2929C12.9024 24.6834 12.9024 25.3166 13.2929 25.7071C13.6834 26.0976 14.3166 26.0976 14.7071 25.7071L19.7071 20.7071C20.0976 20.3166 20.0976 19.6834 19.7071 19.2929L14.7071 14.2929Z" fill="#2D3648"/>
<path d="M21.7071 14.2929C21.3166 13.9024 20.6834 13.9024 20.2929 14.2929C19.9024 14.6834 19.9024 15.3166 20.2929 15.7071L24.5858 20L20.2929 24.2929C19.9024 24.6834 19.9024 25.3166 20.2929 25.7071C20.6834 26.0976 21.3166 26.0976 21.7071 25.7071L26.7071 20.7071C27.0976 20.3166 27.0976 19.6834 26.7071 19.2929L21.7071 14.2929Z" fill="#2D3648"/>
</svg>
