<svg viewBox="0 0 40 40" fill="none" xmlns="http://www.w3.org/2000/svg">
<rect x="0.5" y="0.5" width="39" height="39" rx="5.5" fill="#FDFDFD"/>
<rect x="0.5" y="0.5" width="39" height="39" rx="5.5" stroke="#E2E7F0"/>
<path d="M19.7071 15.7071C20.0976 15.3166 20.0976 14.6834 19.7071 14.2929C19.3166 13.9024 18.6834 13.9024 18.2929 14.2929L13.2929 19.2929C12.9024 19.6834 12.9024 20.3166 13.2929 20.7071L18.2929 25.7071C18.6834 26.0976 19.3166 26.0976 19.7071 25.7071C20.0976 25.3166 20.0976 24.6834 19.7071 24.2929L15.4142 20L19.7071 15.7071Z" fill="#2D3648"/>
<path d="M26.7071 15.7071C27.0976 15.3166 27.0976 14.6834 26.7071 14.2929C26.3166 13.9024 25.6834 13.9024 25.2929 14.2929L20.2929 19.2929C19.9024 19.6834 19.9024 20.3166 20.2929 20.7071L25.2929 25.7071C25.6834 26.0976 26.3166 26.0976 26.7071 25.7071C27.0976 25.3166 27.0976 24.6834 26.7071 24.2929L22.4142 20L26.7071 15.7071Z" fill="#2D3648"/>
</svg>
