<svg width="48" height="48" viewBox="0 0 48 48" fill="none" xmlns="http://www.w3.org/2000/svg">
<path d="M25.7773 30H23.3613V25.072H18.8333V30H16.4173V18.576H18.8333V23.056H23.3613V18.576H25.7773V30Z" fill="#2D3648"/>
<path d="M33.1645 29H27.5507V27.8187L29.5645 25.7825C29.9695 25.3625 30.2957 25.0137 30.5432 24.7362C30.7907 24.4512 30.9707 24.1962 31.0832 23.9712C31.1957 23.7387 31.252 23.4912 31.252 23.2287C31.252 22.9062 31.162 22.6662 30.982 22.5087C30.8095 22.3512 30.5732 22.2725 30.2732 22.2725C29.9657 22.2725 29.6657 22.3437 29.3732 22.4862C29.0807 22.6287 28.7732 22.8312 28.4507 23.0937L27.5282 22.0025C27.7607 21.8 28.0045 21.6125 28.2595 21.44C28.522 21.2675 28.822 21.1287 29.1595 21.0237C29.5045 20.9112 29.917 20.855 30.397 20.855C30.922 20.855 31.372 20.9525 31.747 21.1475C32.1295 21.335 32.422 21.5937 32.6245 21.9237C32.8345 22.2462 32.9395 22.6137 32.9395 23.0262C32.9395 23.3637 32.887 23.675 32.782 23.96C32.6845 24.245 32.5382 24.5225 32.3432 24.7925C32.1557 25.055 31.9232 25.3287 31.6457 25.6137C31.3682 25.8912 31.0532 26.195 30.7007 26.525L29.6657 27.4925V27.5712H33.1645V29Z" fill="#2D3648"/>
</svg>
