<svg width="48" height="48" viewBox="0 0 48 48" fill="none" xmlns="http://www.w3.org/2000/svg">
<path d="M25.7773 30H23.3613V25.072H18.8333V30H16.4173V18.576H18.8333V23.056H23.3613V18.576H25.7773V30Z" fill="#2D3648"/>
<path d="M32.723 23.0791C32.723 23.4282 32.6482 23.7311 32.4986 23.9876C32.3561 24.2441 32.1601 24.4542 31.9107 24.6181C31.6685 24.782 31.3906 24.9031 31.0771 24.9815V25.0136C31.6899 25.0848 32.153 25.2701 32.4665 25.5693C32.7871 25.8686 32.9474 26.2711 32.9474 26.777C32.9474 27.2187 32.837 27.6177 32.6161 27.974C32.4024 28.3231 32.0675 28.601 31.6115 28.8076C31.1626 29.0071 30.5819 29.1069 29.8694 29.1069C29.4491 29.1069 29.0572 29.0713 28.6938 29C28.3304 28.9287 27.9884 28.8254 27.6678 28.6901V27.3221C27.9956 27.4859 28.3376 27.6106 28.6938 27.6961C29.0572 27.7816 29.3921 27.8244 29.6984 27.8244C30.2756 27.8244 30.6781 27.7246 30.9061 27.5251C31.1412 27.3256 31.2588 27.0442 31.2588 26.6808C31.2588 26.4671 31.2054 26.2889 31.0985 26.1464C30.9916 25.9968 30.8028 25.8864 30.5321 25.8151C30.2684 25.7367 29.8979 25.6976 29.4206 25.6976H28.8434V24.4578H29.4312C29.9015 24.4578 30.2577 24.4151 30.5 24.3296C30.7494 24.2369 30.9168 24.1158 31.0023 23.9662C31.0949 23.8094 31.1412 23.6313 31.1412 23.4318C31.1412 23.1611 31.0557 22.9509 30.8847 22.8012C30.7209 22.6445 30.443 22.5661 30.0511 22.5661C29.8089 22.5661 29.588 22.5982 29.3885 22.6623C29.189 22.7193 29.0073 22.7906 28.8434 22.8761C28.6867 22.9616 28.5477 23.0435 28.4266 23.1219L27.6785 22.0104C27.878 21.8679 28.0989 21.7396 28.3411 21.6256C28.5905 21.5116 28.8648 21.4226 29.1641 21.3584C29.4633 21.2943 29.7982 21.2622 30.1687 21.2622C30.9524 21.2622 31.5723 21.4226 32.0283 21.7432C32.4914 22.0567 32.723 22.502 32.723 23.0791Z" fill="#2D3648"/>
</svg>
