<svg width="48" height="48" viewBox="0 0 48 48" fill="none" xmlns="http://www.w3.org/2000/svg">
<path d="M25.7773 30H23.3613V25.072H18.8333V30H16.4173V18.576H18.8333V23.056H23.3613V18.576H25.7773V30Z" fill="#2D3648"/>
<path d="M33.042 27.5015H32.1713V29H30.6829V27.5015H27.5948V26.4384L30.7639 21.7707H32.1713V26.3169H33.042V27.5015ZM30.6829 25.0917C30.6829 24.977 30.6829 24.842 30.6829 24.6867C30.6896 24.5247 30.6964 24.3661 30.7031 24.2109C30.7099 24.0489 30.7166 23.9071 30.7234 23.7856C30.7301 23.6574 30.7369 23.5696 30.7436 23.5224H30.7031C30.6424 23.6574 30.5783 23.789 30.5108 23.9172C30.4433 24.0455 30.3623 24.1771 30.2678 24.3121L28.9414 26.3169H30.6829V25.0917Z" fill="#2D3648"/>
</svg>
