<svg width="24" height="24" viewBox="0 0 24 24" fill="none" xmlns="http://www.w3.org/2000/svg">
<path fill-rule="evenodd" clip-rule="evenodd" d="M10.5128 5.36261C8.6934 3.54319 5.74355 3.54319 3.92413 5.36261C2.10472 7.18202 2.10472 10.1319 3.92413 11.9513L4.70384 12.731C4.71658 12.7437 4.72895 12.7568 4.74093 12.7701L11.9996 20.0289L19.258 12.7705C19.2701 12.7571 19.2825 12.7439 19.2954 12.731L20.0751 11.9513C21.8945 10.1319 21.8945 7.18202 20.0751 5.36261C18.2557 3.54319 15.3059 3.54319 13.4864 5.36261L12.7067 6.14232C12.3162 6.53284 11.683 6.53284 11.2925 6.14232L10.5128 5.36261ZM20.7481 14.1068C20.736 14.1202 20.7236 14.1333 20.7107 14.1462L12.7078 22.1491C12.5202 22.3367 12.2657 22.4421 12.0004 22.442C12.0002 22.442 12.0007 22.442 12.0004 22.442C12.0002 22.442 11.9991 22.442 11.9988 22.442C11.7335 22.4421 11.4791 22.3367 11.2915 22.1491L3.2886 14.1462C3.2757 14.1333 3.26323 14.1202 3.25118 14.1068L2.50992 13.3655C-0.0905439 10.765 -0.0905477 6.54886 2.50992 3.9484C5.11038 1.34793 9.32657 1.34793 11.927 3.9484L11.9996 4.021L12.0722 3.9484C14.6727 1.34793 18.8889 1.34793 21.4893 3.9484C24.0898 6.54886 24.0898 10.765 21.4893 13.3655L20.7481 14.1068Z" fill="#717D96"/>
</svg>
