<svg width="48" height="48" viewBox="0 0 48 48" fill="none" xmlns="http://www.w3.org/2000/svg">
<path d="M14.5497 23.9998C14.5497 22.0048 16.1713 20.3832 18.1663 20.3832H22.833V18.1665H18.1663C14.9463 18.1665 12.333 20.7798 12.333 23.9998C12.333 27.2198 14.9463 29.8332 18.1663 29.8332H22.833V27.6165H18.1663C16.1713 27.6165 14.5497 25.9948 14.5497 23.9998ZM19.333 25.1665H28.6663V22.8332H19.333V25.1665ZM29.833 18.1665H25.1663V20.3832H29.833C31.828 20.3832 33.4497 22.0048 33.4497 23.9998C33.4497 25.9948 31.828 27.6165 29.833 27.6165H25.1663V29.8332H29.833C33.053 29.8332 35.6663 27.2198 35.6663 23.9998C35.6663 20.7798 33.053 18.1665 29.833 18.1665Z" fill="#2D3648"/>
</svg>
