<svg width="16" height="16" viewBox="0 0 16 16" fill="none" xmlns="http://www.w3.org/2000/svg">
<path d="M3.4375 0H4.8125V0.6875H11.6875V0H13.0625V0.6875H15.125H15.8125V1.375V15.125V15.8125H15.125H1.375H0.6875V15.125V1.375V0.6875H1.375H3.4375V0ZM2.0625 2.0625V3.4375H14.4375V2.0625H13.0625V2.75H11.6875V2.0625H4.8125V2.75H3.4375V2.0625H2.0625ZM2.0625 4.8125V14.4375H14.4375V4.8125H2.0625ZM6.1875 6.1875H7.5625V7.5625H6.1875V6.1875ZM8.9375 6.1875H10.3125V7.5625H8.9375V6.1875ZM11.6875 6.1875H13.0625V7.5625H11.6875V6.1875ZM3.4375 8.9375H4.8125V10.3125H3.4375V8.9375ZM6.1875 8.9375H7.5625V10.3125H6.1875V8.9375ZM8.9375 8.9375H10.3125V10.3125H8.9375V8.9375ZM11.6875 8.9375H13.0625V10.3125H11.6875V8.9375ZM3.4375 11.6875H4.8125V13.0625H3.4375V11.6875ZM6.1875 11.6875H7.5625V13.0625H6.1875V11.6875ZM8.9375 11.6875H10.3125V13.0625H8.9375V11.6875Z" fill="#202224"/>
</svg>
