<svg width="25" height="33" viewBox="0 0 25 33" fill="none" xmlns="http://www.w3.org/2000/svg">
<path d="M3.57568 23.0797V28.063H7.40144L18.6849 13.3654L14.8591 8.38208L3.57568 23.0797ZM21.6435 9.51164C21.738 9.3887 21.8131 9.24267 21.8643 9.08191C21.9155 8.92115 21.9418 8.74881 21.9418 8.57477C21.9418 8.40073 21.9155 8.22839 21.8643 8.06763C21.8131 7.90687 21.738 7.76084 21.6435 7.6379L19.2562 4.52828C19.1618 4.40508 19.0497 4.30735 18.9263 4.24066C18.8029 4.17397 18.6706 4.13965 18.5369 4.13965C18.4033 4.13965 18.271 4.17397 18.1476 4.24066C18.0242 4.30735 17.9121 4.40508 17.8177 4.52828L15.9507 6.96016L19.7765 11.9435L21.6435 9.51164Z" fill="black"/>
</svg>
