<svg width="40" height="40" viewBox="0 0 40 40" fill="none" xmlns="http://www.w3.org/2000/svg">
<rect width="40" height="40" rx="6" fill="#2D3648"/>
<path fill-rule="evenodd" clip-rule="evenodd" d="M12 19C12 15.134 15.134 12 19 12C22.866 12 26 15.134 26 19C26 20.8858 25.2543 22.5974 24.0417 23.8561C24.0073 23.8825 23.9743 23.9114 23.9428 23.9429C23.9113 23.9744 23.8824 24.0074 23.856 24.0418C22.5973 25.2543 20.8857 26 19 26C15.134 26 12 22.866 12 19ZM24.6176 26.0319C23.078 27.2635 21.125 28 19 28C14.0294 28 10 23.9706 10 19C10 14.0294 14.0294 10 19 10C23.9706 10 28 14.0294 28 19C28 21.125 27.2635 23.0781 26.0319 24.6177L29.707 28.2929C30.0975 28.6834 30.0975 29.3166 29.707 29.7071C29.3165 30.0976 28.6833 30.0976 28.2928 29.7071L24.6176 26.0319Z" fill="white"/>
</svg>
