<svg width="62" height="61" viewBox="0 0 62 61" fill="none" xmlns="http://www.w3.org/2000/svg">
<path d="M23.3916 6.4164C25.7864 -0.95409 36.2136 -0.954082 38.6085 6.4164L40.4296 12.0213C41.5006 15.3175 44.5722 17.5491 48.038 17.5491H53.9314C61.6812 17.5491 64.9034 27.4661 58.6336 32.0213L53.8658 35.4853C51.062 37.5224 49.8887 41.1334 50.9597 44.4296L52.7808 50.0344C55.1756 57.4049 46.7398 63.5339 40.4701 58.9787L35.7023 55.5147C32.8984 53.4776 29.1016 53.4776 26.2977 55.5147L21.5299 58.9787C15.2602 63.5339 6.82437 57.4049 9.21919 50.0344L11.0403 44.4296C12.1113 41.1334 10.9381 37.5224 8.13415 35.4853L3.36635 32.0213C-2.90336 27.4661 0.31885 17.5491 8.06864 17.5491H13.962C17.4278 17.5491 20.4994 15.3175 21.5704 12.0213L23.3916 6.4164Z" fill="#FFD350"/>
</svg>
