<svg viewBox="0 0 28 30" fill="none" xmlns="http://www.w3.org/2000/svg">
<path fill-rule="evenodd" clip-rule="evenodd" d="M7.33341 5.66634V4.33301C7.33341 3.27214 7.75484 2.25473 8.50499 1.50458C9.25513 0.754435 10.2725 0.333008 11.3334 0.333008H16.6667C17.7276 0.333008 18.745 0.754435 19.4952 1.50458C20.2453 2.25473 20.6667 3.27214 20.6667 4.33301V5.66634H26.0001C26.7365 5.66634 27.3334 6.26329 27.3334 6.99967C27.3334 7.73605 26.7365 8.33301 26.0001 8.33301H24.6667V25.6663C24.6667 26.7272 24.2453 27.7446 23.4952 28.4948C22.745 29.2449 21.7276 29.6663 20.6667 29.6663H7.33341C6.27255 29.6663 5.25513 29.2449 4.50499 28.4948C3.75484 27.7446 3.33341 26.7272 3.33341 25.6663V8.33301H2.00008C1.2637 8.33301 0.666748 7.73605 0.666748 6.99967C0.666748 6.26329 1.2637 5.66634 2.00008 5.66634H7.33341ZM10.3906 3.3902C10.6407 3.14015 10.9798 2.99967 11.3334 2.99967H16.6667C17.0204 2.99967 17.3595 3.14015 17.6096 3.3902C17.8596 3.64025 18.0001 3.97939 18.0001 4.33301V5.66634H10.0001V4.33301C10.0001 3.97939 10.1406 3.64025 10.3906 3.3902ZM6.00008 8.33301V25.6663C6.00008 26.02 6.14056 26.3591 6.39061 26.6091C6.64065 26.8592 6.97979 26.9997 7.33341 26.9997H20.6667C21.0204 26.9997 21.3595 26.8592 21.6096 26.6091C21.8596 26.3591 22.0001 26.02 22.0001 25.6663V8.33301H6.00008Z" fill="#2D3648"/>
</svg>
