<svg width="25" height="24" viewBox="0 0 25 24" fill="none" xmlns="http://www.w3.org/2000/svg">
<g clip-path="url(#clip0_193_581)">
<path d="M19.6096 1.7832H8.59961V6.34894H21.961V4.13373C21.961 2.83752 20.9061 1.7832 19.6096 1.7832Z" fill="#CED9F9"/>
<path d="M13.3773 7.05157H0.5V2.81506C0.5 1.2627 1.76324 0 3.31616 0H7.43347C7.84271 0 8.23694 0.0862427 8.59509 0.248291C9.09534 0.473694 9.52509 0.845215 9.82648 1.33063L13.3773 7.05157Z" fill="#1640C1"/>
<path d="M24.5 8V21.6465C24.5 22.9443 23.4435 23.9999 22.1451 23.9999H2.85492C1.55652 23.9999 0.5 22.9443 0.5 21.6465V5.646H22.1451C23.4435 5.646 24.5 6.70197 24.5 8Z" fill="#2354E6"/>
<path d="M24.5 8V21.6465C24.5 22.9443 23.4435 23.9999 22.1451 23.9999H12.5V5.646H22.1451C23.4435 5.646 24.5 6.70197 24.5 8Z" fill="#1849D6"/>
<path d="M18.8127 14.8229C18.8127 18.3043 15.9807 21.1365 12.4996 21.1365C9.01862 21.1365 6.18652 18.3043 6.18652 14.8229C6.18652 11.342 9.01862 8.50977 12.4996 8.50977C15.9807 8.50977 18.8127 11.342 18.8127 14.8229Z" fill="#E7ECFC"/>
<path d="M18.8131 14.8229C18.8131 18.3043 15.981 21.1365 12.5 21.1365V8.50977C15.981 8.50977 18.8131 11.342 18.8131 14.8229Z" fill="#CED9F9"/>
<path d="M14.5344 14.9C14.4028 15.0115 14.2415 15.0659 14.0816 15.0659C13.8815 15.0659 13.6826 14.9811 13.5435 14.8159L13.2027 14.412V17.0566C13.2027 17.4448 12.8878 17.7597 12.4996 17.7597C12.1114 17.7597 11.7964 17.4448 11.7964 17.0566V14.412L11.4557 14.8159C11.2048 15.1127 10.7615 15.1506 10.4647 14.9C10.1681 14.6497 10.13 14.2062 10.3803 13.9094L11.7721 12.2594C11.9535 12.0448 12.2183 11.9214 12.4996 11.9214C12.7808 11.9214 13.0456 12.0448 13.227 12.2594L14.6188 13.9094C14.8691 14.2062 14.8311 14.6497 14.5344 14.9Z" fill="#6C8DEF"/>
<path d="M14.5349 14.9C14.4032 15.0115 14.2419 15.0659 14.082 15.0659C13.8819 15.0659 13.683 14.9811 13.5439 14.8159L13.2031 14.412V17.0566C13.2031 17.4448 12.8882 17.7597 12.5 17.7597V11.9214C12.7813 11.9214 13.046 12.0448 13.2275 12.2594L14.6193 13.9094C14.8696 14.2062 14.8315 14.6497 14.5349 14.9Z" fill="#3B67E9"/>
</g>
<defs>
<clipPath id="clip0_193_581">
<rect width="24" height="24" fill="white" transform="translate(0.5)"/>
</clipPath>
</defs>
</svg>
