<svg width="200" height="200" viewBox="0 0 200 200" fill="none" xmlns="http://www.w3.org/2000/svg">
<circle cx="100" cy="100" r="100" fill="#1A202C"/>
<path fill-rule="evenodd" clip-rule="evenodd" d="M100 45C84.6588 45 72.2222 57.4365 72.2222 72.7778C72.2222 88.119 84.6588 100.556 100 100.556C115.341 100.556 127.778 88.119 127.778 72.7778C127.778 57.4365 115.341 45 100 45ZM83.3333 72.7778C83.3333 63.573 90.7952 56.1111 100 56.1111C109.205 56.1111 116.667 63.573 116.667 72.7778C116.667 81.9825 109.205 89.4444 100 89.4444C90.7952 89.4444 83.3333 81.9825 83.3333 72.7778Z" fill="white"/>
<path d="M77.7778 111.667C70.4107 111.667 63.3453 114.593 58.1359 119.803C52.9266 125.012 50 132.077 50 139.444V150.556C50 153.624 52.4873 156.111 55.5556 156.111C58.6238 156.111 61.1111 153.624 61.1111 150.556V139.444C61.1111 135.024 62.8671 130.785 65.9927 127.659C69.1183 124.534 73.3575 122.778 77.7778 122.778H122.222C126.642 122.778 130.882 124.534 134.007 127.659C137.133 130.785 138.889 135.024 138.889 139.444V150.556C138.889 153.624 141.376 156.111 144.444 156.111C147.513 156.111 150 153.624 150 150.556V139.444C150 132.077 147.073 125.012 141.864 119.803C136.655 114.593 129.589 111.667 122.222 111.667H77.7778Z" fill="white"/>
</svg>
