<svg width="84" height="40" viewBox="0 0 84 40" fill="none" xmlns="http://www.w3.org/2000/svg">
<rect width="84" height="40" rx="6" fill="#FFD350"/>
<path d="M21.44 26V14.576H23.856V24H28.496V26H21.44ZM38.0709 21.616C38.0709 22.3413 37.9695 22.9867 37.7669 23.552C37.5749 24.1173 37.2922 24.5973 36.9189 24.992C36.5562 25.376 36.1135 25.6693 35.5909 25.872C35.0682 26.064 34.4762 26.16 33.8149 26.16C33.2069 26.16 32.6415 26.064 32.1189 25.872C31.6069 25.6693 31.1642 25.376 30.7909 24.992C30.4175 24.5973 30.1242 24.1173 29.9109 23.552C29.7082 22.9867 29.6069 22.3413 29.6069 21.616C29.6069 20.6453 29.7775 19.8293 30.1189 19.168C30.4602 18.496 30.9509 17.984 31.5909 17.632C32.2309 17.28 32.9882 17.104 33.8629 17.104C34.6842 17.104 35.4095 17.28 36.0389 17.632C36.6682 17.984 37.1642 18.496 37.5269 19.168C37.8895 19.8293 38.0709 20.6453 38.0709 21.616ZM32.0389 21.616C32.0389 22.192 32.0975 22.6773 32.2149 23.072C32.3429 23.456 32.5402 23.7493 32.8069 23.952C33.0735 24.144 33.4202 24.24 33.8469 24.24C34.2735 24.24 34.6149 24.144 34.8709 23.952C35.1375 23.7493 35.3295 23.456 35.4469 23.072C35.5749 22.6773 35.6389 22.192 35.6389 21.616C35.6389 21.04 35.5749 20.56 35.4469 20.176C35.3295 19.792 35.1375 19.504 34.8709 19.312C34.6042 19.12 34.2575 19.024 33.8309 19.024C33.2015 19.024 32.7429 19.2427 32.4549 19.68C32.1775 20.1067 32.0389 20.752 32.0389 21.616ZM42.7131 17.104C43.2465 17.104 43.7265 17.2107 44.1531 17.424C44.5798 17.6373 44.9425 17.9573 45.2411 18.384H45.3051L45.4971 17.264H47.5131V26.016C47.5131 26.848 47.3478 27.5467 47.0171 28.112C46.6971 28.6773 46.2118 29.104 45.5611 29.392C44.9105 29.6907 44.1051 29.84 43.1451 29.84C42.5265 29.84 41.9505 29.8027 41.4171 29.728C40.8945 29.6533 40.3825 29.52 39.8811 29.328V27.424C40.2438 27.5733 40.6065 27.696 40.9691 27.792C41.3425 27.8987 41.7211 27.9733 42.1051 28.016C42.4998 28.0693 42.8945 28.096 43.2891 28.096C43.9078 28.096 44.3665 27.9307 44.6651 27.6C44.9745 27.2693 45.1291 26.7733 45.1291 26.112V25.936C45.1291 25.7547 45.1345 25.568 45.1451 25.376C45.1665 25.184 45.1825 25.0133 45.1931 24.864H45.1291C44.8305 25.3227 44.4731 25.6533 44.0571 25.856C43.6411 26.0587 43.1718 26.16 42.6491 26.16C41.6145 26.16 40.8038 25.7653 40.2171 24.976C39.6411 24.176 39.3531 23.0667 39.3531 21.648C39.3531 20.688 39.4865 19.872 39.7531 19.2C40.0198 18.5173 40.4038 18 40.9051 17.648C41.4171 17.2853 42.0198 17.104 42.7131 17.104ZM43.4651 19.04C43.0918 19.04 42.7771 19.1413 42.5211 19.344C42.2758 19.536 42.0891 19.8293 41.9611 20.224C41.8438 20.608 41.7851 21.0933 41.7851 21.68C41.7851 22.5547 41.9238 23.2107 42.2011 23.648C42.4785 24.0747 42.9105 24.288 43.4971 24.288C43.8065 24.288 44.0731 24.2507 44.2971 24.176C44.5211 24.0907 44.7025 23.9573 44.8411 23.776C44.9905 23.584 45.1025 23.3387 45.1771 23.04C45.2518 22.7413 45.2891 22.3787 45.2891 21.952V21.664C45.2891 21.0347 45.2251 20.528 45.0971 20.144C44.9691 19.76 44.7718 19.4827 44.5051 19.312C44.2385 19.1307 43.8918 19.04 43.4651 19.04ZM52.2301 17.264V26H49.8461V17.264H52.2301ZM51.0461 13.84C51.3981 13.84 51.7021 13.9253 51.9581 14.096C52.2141 14.256 52.3421 14.56 52.3421 15.008C52.3421 15.4453 52.2141 15.7493 51.9581 15.92C51.7021 16.0907 51.3981 16.176 51.0461 16.176C50.6835 16.176 50.3741 16.0907 50.1181 15.92C49.8728 15.7493 49.7501 15.4453 49.7501 15.008C49.7501 14.56 49.8728 14.256 50.1181 14.096C50.3741 13.9253 50.6835 13.84 51.0461 13.84ZM59.5211 17.104C60.4598 17.104 61.2118 17.36 61.7771 17.872C62.3425 18.3733 62.6251 19.184 62.6251 20.304V26H60.2411V20.896C60.2411 20.2667 60.1291 19.7973 59.9051 19.488C59.6811 19.168 59.3238 19.008 58.8331 19.008C58.1078 19.008 57.6118 19.2587 57.3451 19.76C57.0785 20.2507 56.9451 20.96 56.9451 21.888V26H54.5611V17.264H56.3851L56.7051 18.384H56.8331C57.0251 18.0853 57.2598 17.8453 57.5371 17.664C57.8145 17.472 58.1238 17.3333 58.4651 17.248C58.8065 17.152 59.1585 17.104 59.5211 17.104Z" fill="#3A4CA8"/>
</svg>
